<svg aria-hidden="true" style="position: absolute; width: 0; height: 0; overflow: hidden;" version="1.1" xmlns="http://www.w3.org/2000/svg" xmlns:xlink="http://www.w3.org/1999/xlink">
<defs>
<symbol id="Figma" viewBox="0 0 23 32">
<path fill="#0acf83" style="fill: var(--color1, #0acf83)" d="M6.001 31.122c3.035 0 5.499-2.258 5.499-5.040v-5.041h-5.499c-3.035 0-5.499 2.258-5.499 5.041s2.463 5.041 5.499 5.041z"></path>
<path fill="#a259ff" style="fill: var(--color2, #a259ff)" d="M0.502 16c0-2.782 2.463-5.040 5.499-5.040h5.499v10.081h-5.499c-3.035 0-5.499-2.258-5.499-5.040z"></path>
<path fill="#f24e1e" style="fill: var(--color3, #f24e1e)" d="M0.504 5.919c0-2.782 2.463-5.040 5.499-5.040h5.499v10.081h-5.499c-3.035 0-5.499-2.258-5.499-5.040z"></path>
<path fill="#ff7262" style="fill: var(--color4, #ff7262)" d="M11.5 0.878h5.499c3.035 0 5.499 2.258 5.499 5.040s-2.463 5.040-5.499 5.040h-5.499v-10.081z"></path>
<path fill="#1abcfe" style="fill: var(--color5, #1abcfe)" d="M22.498 16c0 2.782-2.463 5.041-5.499 5.041s-5.499-2.258-5.499-5.040c0-2.782 2.463-5.040 5.499-5.040s5.499 2.258 5.499 5.040z"></path>
</symbol>
<symbol id="app-store" viewBox="0 0 32 32">
<path fill="#000" style="fill: var(--color6, #000)" d="M24-0h-16c-4.418 0-8 3.582-8 8v16c0 4.418 3.582 8 8 8h16c4.418 0 8-3.582 8-8v-16c0-4.418-3.582-8-8-8z"></path>
<path fill="#fff" style="fill: var(--color7, #fff)" d="M11.396 21.954l-0.844 1.468c-0.31 0.534-0.992 0.718-1.531 0.409-0.534-0.31-0.718-0.992-0.409-1.531l0.624-1.082 0.058-0.103c0.108-0.153 0.373-0.418 0.898-0.368 0 0 1.244 0.135 1.333 0.781 0 0.005 0.014 0.215-0.13 0.427zM23.407 18.209h-2.64c-0.18-0.013-0.26-0.076-0.287-0.112v-0.004l-2.829-4.894-0.005 0.005-0.171-0.242c-0.278-0.427-0.718 0.66-0.718 0.66-0.525 1.212 0.076 2.586 0.283 3.004l3.924 6.802c0.31 0.534 0.992 0.718 1.531 0.409 0.534-0.31 0.718-0.992 0.409-1.531l-0.983-1.702c-0.018-0.040-0.054-0.153 0.148-0.153h1.333c0.62 0 1.118-0.503 1.118-1.118 0.005-0.62-0.494-1.122-1.113-1.122zM18.279 19.731c0 0 0.139 0.718-0.404 0.718h-9.765c-0.62 0-1.118-0.503-1.118-1.118 0-0.62 0.503-1.118 1.118-1.118h2.51c0.404-0.022 0.503-0.256 0.503-0.256l3.278-5.675c0.058-0.108 0.009-0.211 0-0.229l-1.082-1.872c-0.31-0.534-0.126-1.221 0.409-1.531s1.221-0.126 1.531 0.409l0.503 0.871 0.503-0.867c0.31-0.534 0.992-0.718 1.531-0.409 0.534 0.31 0.718 0.992 0.409 1.531l-4.557 7.893c-0.018 0.049-0.027 0.126 0.121 0.135h2.725v0.027c-0.004-0.005 1.571 0.018 1.787 1.491z"></path>
</symbol>
</defs>
</svg>
